<?xml version="1.0" standalone="no"?>
<!DOCTYPE svg PUBLIC "-//W3C//DTD SVG 20010904//EN"
 "http://www.w3.org/TR/2001/REC-SVG-20010904/DTD/svg10.dtd">
<svg version="1.0" xmlns="http://www.w3.org/2000/svg"
 width="322.000000pt" height="263.000000pt" viewBox="0 0 322.000000 263.000000"
 preserveAspectRatio="xMidYMid meet">
<metadata>
Created by potrace 1.16, written by Peter Selinger 2001-2019
</metadata>
<g transform="translate(0.000000,263.000000) scale(0.100000,-0.100000)"
fill="#000000" stroke="none">
<path d="M2144 2611 c-42 -26 -47 -35 -50 -102 -5 -107 -34 -303 -59 -399 -41
-155 -93 -250 -194 -351 -76 -76 -99 -92 -196 -139 -245 -117 -354 -174 -425
-223 -41 -29 -73 -56 -72 -62 4 -19 57 -25 197 -24 150 2 197 -6 279 -48 137
-69 299 -291 350 -478 13 -49 36 -156 50 -236 36 -207 81 -319 128 -319 31 0
97 39 120 70 12 17 25 68 38 157 21 149 67 298 136 443 57 120 110 189 187
247 81 59 144 91 360 179 245 100 267 122 145 148 -40 8 -122 25 -183 36 -93
18 -121 28 -180 65 -256 159 -429 404 -509 721 -21 84 -56 285 -56 323 0 17
-31 13 -66 -8z m29 -455 c24 -83 105 -250 163 -338 65 -97 197 -226 304 -296
78 -52 101 -62 177 -77 49 -9 104 -20 123 -24 76 -15 41 -47 -104 -97 -72 -25
-174 -84 -275 -160 -113 -85 -241 -274 -290 -428 -38 -118 -71 -281 -71 -348
0 -38 -3 -49 -10 -38 -18 27 -29 82 -50 245 -11 88 -26 180 -34 205 -51 167
-129 295 -256 421 -115 114 -169 144 -288 159 -104 13 -132 24 -132 50 0 26
50 59 166 109 258 112 357 197 449 386 40 81 95 245 95 281 0 34 17 9 33 -50z"/>
<path d="M570 1558 c-5 -13 -14 -68 -20 -123 -16 -133 -47 -291 -67 -329 -38
-76 -110 -129 -311 -230 -127 -64 -172 -95 -172 -119 0 -34 28 -50 110 -63 45
-7 106 -20 135 -29 164 -47 268 -201 300 -443 19 -148 51 -212 105 -212 36 0
76 33 89 73 5 17 15 71 21 119 16 133 56 226 129 310 59 67 128 114 266 184
72 36 121 67 123 77 2 9 -9 30 -25 45 -22 22 -50 33 -133 51 -124 28 -140 35
-210 98 -126 113 -194 270 -225 517 -5 34 -14 55 -32 72 -33 31 -70 31 -83 2z
m240 -618 c79 -80 166 -142 214 -154 28 -7 27 -8 -40 -42 -80 -42 -120 -70
-175 -127 -57 -59 -74 -98 -115 -259 -20 -79 -40 -147 -44 -151 -4 -5 -11 11
-15 35 -39 239 -73 331 -157 423 -59 65 -112 98 -186 115 l-54 12 118 67 c155
87 232 160 264 252 l24 67 46 -82 c29 -52 72 -108 120 -156z"/>
</g>
</svg>
