<?xml version="1.0" standalone="no"?>
<!DOCTYPE svg PUBLIC "-//W3C//DTD SVG 20010904//EN"
 "http://www.w3.org/TR/2001/REC-SVG-20010904/DTD/svg10.dtd">
<svg version="1.0" xmlns="http://www.w3.org/2000/svg"
 width="512.000000pt" height="512.000000pt" viewBox="0 0 512.000000 512.000000"
 preserveAspectRatio="xMidYMid meet">
<metadata>
Created by potrace 1.16, written by Peter Selinger 2001-2019
</metadata>
<g transform="translate(0.000000,512.000000) scale(0.100000,-0.100000)"
fill="#000000" stroke="none">
<path d="M2160 4695 c-359 -52 -708 -230 -1000 -509 -256 -246 -457 -551 -594
-905 -53 -136 -62 -163 -111 -361 -81 -323 -87 -722 -16 -1035 34 -149 92
-318 150 -435 154 -310 303 -491 606 -738 118 -95 381 -238 555 -300 113 -41
302 -87 425 -103 141 -20 473 -17 600 4 144 23 236 44 355 79 508 150 974 488
1254 908 68 102 185 336 220 440 89 265 119 449 118 730 0 231 -16 371 -67
569 -124 489 -404 934 -775 1232 -208 167 -512 286 -880 344 -58 9 -148 28
-200 41 -199 52 -449 67 -640 39z m520 -356 c69 -5 148 -17 175 -25 28 -8 75
-14 105 -13 111 1 330 -60 510 -144 409 -189 745 -646 886 -1204 83 -328 86
-702 8 -978 -132 -468 -466 -871 -931 -1123 -209 -113 -394 -177 -663 -229
-149 -28 -476 -25 -630 6 -317 64 -601 194 -830 379 -293 236 -486 528 -569
862 -36 146 -45 229 -44 435 0 234 18 382 73 600 26 106 42 154 107 330 8 21
41 91 73 155 248 485 617 816 1065 955 42 12 91 14 295 10 135 -3 301 -10 370
-16z"/>
</g>
</svg>
