<?xml version="1.0" standalone="no"?>
<!DOCTYPE svg PUBLIC "-//W3C//DTD SVG 20010904//EN"
 "http://www.w3.org/TR/2001/REC-SVG-20010904/DTD/svg10.dtd">
<svg version="1.0" xmlns="http://www.w3.org/2000/svg"
 width="421.000000pt" height="420.000000pt" viewBox="0 0 421.000000 420.000000"
 preserveAspectRatio="xMidYMid meet">
<metadata>
Created by potrace 1.16, written by Peter Selinger 2001-2019
</metadata>
<g transform="translate(0.000000,420.000000) scale(0.100000,-0.100000)"
fill="#000000" stroke="none">
<path d="M41 4174 c-50 -42 -49 -67 14 -279 133 -451 224 -863 409 -1850 117
-620 232 -1167 281 -1333 18 -60 53 -92 102 -92 49 0 67 12 168 110 50 48 194
180 320 292 127 113 283 260 347 326 64 67 119 122 121 122 6 0 409 -430 562
-600 196 -218 419 -478 585 -682 74 -91 145 -171 158 -177 57 -28 98 -7 173
88 78 100 305 339 452 476 199 185 426 413 447 447 11 18 20 49 20 68 0 32
-12 47 -138 170 -158 155 -297 279 -572 510 -252 212 -402 343 -518 455 l-93
90 222 235 c121 129 335 350 475 490 242 243 254 258 254 293 0 45 -22 92 -47
101 -10 4 -99 21 -198 37 -414 68 -774 147 -1690 368 -761 183 -1183 271
-1612 335 -95 14 -181 26 -192 26 -11 0 -33 -12 -50 -26z m374 -234 c385 -62
759 -143 1575 -340 641 -155 983 -232 1265 -285 105 -19 202 -39 217 -43 26
-7 20 -14 -160 -197 -103 -105 -298 -309 -434 -453 l-248 -263 0 -45 c0 -44 3
-49 103 -151 126 -130 293 -281 592 -533 308 -259 381 -324 508 -447 l107
-105 -28 -32 c-15 -17 -97 -98 -182 -181 -239 -231 -440 -433 -513 -515 -36
-41 -68 -72 -70 -70 -2 3 -70 86 -153 185 -305 368 -697 805 -999 1112 -208
212 -206 212 -360 29 -53 -64 -151 -167 -218 -230 -143 -134 -500 -446 -505
-441 -14 14 -134 592 -251 1210 -181 958 -289 1445 -397 1798 -7 22 1 22 151
-3z"/>
</g>
</svg>
