<?xml version="1.0" standalone="no"?>
<!DOCTYPE svg PUBLIC "-//W3C//DTD SVG 20010904//EN"
 "http://www.w3.org/TR/2001/REC-SVG-20010904/DTD/svg10.dtd">
<svg version="1.0" xmlns="http://www.w3.org/2000/svg"
 width="512.000000pt" height="512.000000pt" viewBox="0 0 512.000000 512.000000"
 preserveAspectRatio="xMidYMid meet">
<metadata>
Created by potrace 1.16, written by Peter Selinger 2001-2019
</metadata>
<g transform="translate(0.000000,512.000000) scale(0.100000,-0.100000)"
fill="#000000" stroke="none">
<path d="M4545 5034 c-1478 -354 -1908 -478 -3270 -944 -302 -104 -635 -216
-740 -250 -220 -71 -391 -151 -459 -213 -42 -39 -46 -48 -46 -89 0 -28 -6 -50
-15 -58 -8 -7 -15 -29 -15 -50 0 -33 19 -61 185 -268 358 -447 578 -642 815
-722 44 -14 81 -28 84 -31 2 -2 -2 -92 -10 -199 -22 -296 -29 -747 -15 -940
23 -314 76 -591 157 -808 45 -121 57 -140 101 -158 49 -21 84 -10 142 42 38
34 57 44 83 44 73 0 199 51 341 138 121 75 457 302 611 414 131 95 338 246
370 271 7 6 44 -12 96 -44 342 -212 748 -313 915 -227 94 49 139 114 286 408
220 442 321 702 645 1665 253 750 314 1020 314 1390 0 236 -33 430 -86 507
-30 43 -52 58 -99 68 -20 4 -31 13 -33 26 -2 11 -13 32 -25 47 -36 45 -74 43
-332 -19z m-181 -372 c-453 -366 -520 -410 -1394 -894 -457 -254 -504 -284
-807 -529 -293 -237 -441 -352 -508 -395 -200 -127 -382 -169 -555 -125 -154
38 -281 112 -463 269 -94 81 -443 429 -437 435 6 5 1123 398 1565 550 372 129
897 300 1055 345 151 43 245 64 715 157 411 82 622 131 767 179 90 30 88 29
62 8z m528 -272 c1 -188 -14 -325 -58 -530 -65 -304 -160 -582 -422 -1235
-134 -332 -201 -515 -257 -698 -117 -383 -168 -494 -279 -614 -40 -43 -79 -73
-124 -95 -64 -32 -72 -33 -182 -33 -103 0 -126 4 -215 33 -105 34 -262 109
-380 182 -61 37 -546 370 -569 391 -18 16 394 492 1484 1714 415 465 654 738
850 969 l134 160 9 -35 c4 -19 8 -113 9 -209z m-898 -415 c-92 -96 -169 -175
-171 -175 -2 0 -3 36 -3 80 l0 79 67 38 c36 21 112 65 167 99 56 34 103 60
105 58 2 -2 -72 -82 -165 -179z m-314 -137 c0 -23 5 -70 11 -105 l11 -65 -33
-34 c-18 -18 -34 -32 -37 -30 -8 8 -50 221 -46 228 6 9 75 47 87 48 4 0 7 -19
7 -42z m-210 -77 c0 -36 25 -174 40 -223 l18 -59 -106 -118 c-113 -124 -133
-135 -154 -82 -15 38 -35 183 -39 280 l-4 85 115 62 c122 66 130 69 130 55z
m-350 -249 c0 -167 34 -305 85 -347 l24 -20 -62 -67 c-58 -62 -64 -66 -98 -61
l-36 5 -26 141 c-26 141 -52 326 -45 331 13 11 145 85 151 86 4 0 7 -30 7 -68z
m-220 -457 c11 -66 27 -145 34 -176 l13 -56 -127 -156 c-85 -104 -130 -152
-134 -142 -12 31 -25 231 -31 475 -4 140 -11 260 -16 266 -6 7 29 37 108 92
l118 80 7 -132 c4 -72 16 -185 28 -251z m-350 -97 c-15 -313 -11 -414 24 -499
14 -34 22 -68 18 -74 -4 -6 -36 -49 -72 -94 l-65 -83 -3 58 c-4 104 -52 556
-69 654 -9 52 -17 104 -17 116 -1 15 28 45 94 102 52 44 96 79 98 77 2 -2 -2
-117 -8 -257z m-259 -143 c7 -74 12 -245 11 -395 0 -146 4 -293 9 -328 l9 -62
-55 -75 c-30 -41 -59 -75 -65 -75 -5 0 -18 -10 -30 -22 -28 -31 -26 -79 6
-118 l27 -31 -29 -30 -29 -30 -7 33 c-13 62 -28 332 -38 665 -5 183 -13 363
-16 400 l-6 68 93 78 c64 53 95 73 100 65 4 -7 13 -71 20 -143z m-316 -281
c-25 -339 -18 -637 21 -859 17 -92 26 -113 55 -124 14 -5 2 -30 -75 -153 -50
-81 -94 -149 -97 -152 -3 -3 -6 93 -7 213 -1 120 -7 337 -12 482 -5 145 -12
338 -16 429 -6 197 -8 210 -33 210 -16 0 -20 -10 -25 -62 -4 -35 -15 -150 -26
-257 -19 -182 -50 -567 -69 -851 -9 -133 -1 -287 19 -359 12 -44 11 -45 -31
-105 -24 -34 -66 -90 -93 -126 -46 -58 -51 -62 -55 -40 -3 25 11 494 29 955 5
132 10 355 10 495 l0 256 58 28 c80 39 205 115 287 175 38 28 70 49 72 47 2
-2 -3 -93 -12 -202z m-558 -271 c-10 -98 -40 -412 -67 -698 -26 -286 -48 -513
-49 -505 -1 8 -8 80 -17 160 -9 89 -20 343 -27 662 -13 561 -16 528 41 528 15
0 50 7 77 14 28 8 53 15 56 15 3 1 -3 -79 -14 -176z m1105 -788 l144 -109 -60
-51 c-210 -177 -716 -547 -783 -572 -14 -5 -12 2 11 31 51 67 347 498 397 577
26 42 66 113 89 158 22 45 45 81 49 79 5 -2 74 -52 153 -113z"/>
<path d="M68 1583 c-46 -52 -74 -314 -49 -456 28 -163 106 -311 204 -388 55
-44 83 -48 121 -18 44 35 36 77 -38 194 -85 134 -102 170 -127 262 -19 69 -21
96 -17 232 4 140 3 156 -14 173 -23 23 -60 23 -80 1z"/>
<path d="M326 1498 c-53 -76 53 -557 143 -647 31 -31 95 -29 117 4 16 24 16
30 -3 98 -11 40 -39 121 -62 181 -37 96 -64 197 -85 318 -4 21 -14 44 -22 53
-23 23 -70 19 -88 -7z"/>
<path d="M2594 646 c-11 -8 -38 -45 -60 -82 -71 -121 -146 -190 -290 -262 -33
-17 -66 -37 -73 -46 -20 -24 -9 -77 22 -99 27 -21 28 -21 80 -3 283 99 528
383 421 490 -19 20 -73 21 -100 2z"/>
<path d="M2800 453 c-74 -76 -179 -178 -233 -226 -103 -94 -119 -122 -93 -162
35 -53 92 -41 204 44 130 98 321 263 350 304 61 85 33 177 -55 177 -36 0 -46
-8 -173 -137z"/>
</g>
</svg>
