<svg width="587" height="183" viewBox="0 0 587 183" fill="none" xmlns="http://www.w3.org/2000/svg">
<path d="M586.5 31V182.5C586.5 182.5 408.039 142.922 292 143C176.541 143.078 -1 182.5 -1 182.5V31C-1 31 176.322 74.4144 292 74.5C408.257 74.586 586.5 31 586.5 31Z" fill="black"/>
<path d="M427.71 59.5801C427.849 59.7158 427.98 59.8582 428.106 60.0048C427.823 60.1575 427.54 60.3108 427.258 60.4629C427.407 60.1678 427.556 59.8728 427.71 59.5801ZM431.401 52.8663C431.839 54.4137 432.847 55.8036 434.341 56.2671C432.777 57.3723 431.13 58.3417 429.456 59.2663C429.16 58.8797 428.812 58.5332 428.455 58.1999C429.434 56.421 430.458 54.6646 431.401 52.8663ZM435.917 54.9099C435.864 54.9027 435.806 54.9009 435.744 54.9051C433.872 55.0457 432.818 53.2831 432.687 51.6054C432.677 51.4831 432.644 51.3764 432.594 51.2843C439.541 44.3378 446.488 37.3913 453.434 30.4442C454.38 31.8384 455.509 33.404 456.927 34.3461C449.956 41.2339 442.863 47.9962 435.917 54.9099ZM459.254 32.0492C458.854 32.4491 458.447 32.8435 458.046 33.2422C456.58 32.3819 455.448 30.7296 454.523 29.3561L455.229 28.6496C456.901 27.9916 459.459 30.2988 459.254 32.0492ZM454.801 27.1967C454.774 27.2076 454.754 27.2221 454.73 27.2342C454.578 27.2482 454.424 27.313 454.285 27.4518L431.212 50.5245C431.11 50.6269 431.05 50.7378 431.018 50.8505C430.833 50.8832 430.662 50.9971 430.549 51.2231C428.834 54.6373 426.74 57.8546 425.159 61.336C425.093 61.4802 425.077 61.6208 425.091 61.7522C424.753 62.3163 425.409 63.1961 426.135 62.7962C429.494 60.9458 432.942 59.2523 436.005 56.9221C436.106 56.8458 436.179 56.7555 436.231 56.6597C436.31 56.6234 436.388 56.5743 436.462 56.501C444.364 48.616 452.481 40.9503 460.382 33.0647C460.383 33.0641 460.383 33.0629 460.384 33.0623C460.532 32.9774 460.65 32.8314 460.698 32.6097C461.307 29.8165 457.665 26.0116 454.801 27.1967Z" fill="black"/>
<path d="M452.808 32.5814C446.923 38.4658 440.935 44.2411 435.037 50.1103C433.652 51.4869 435.794 53.6293 437.179 52.2521C443.077 46.3835 449.065 40.6082 454.95 34.7238C456.33 33.343 454.188 31.2006 452.808 32.5814Z" fill="black"/>
<path d="M92.9184 11.5C88.4184 20.5 76.1303 23.6172 69.4184 17C64.8914 12.5368 62.9184 0.999945 66.4184 1C69.9184 1.00006 70.9184 9.5 70.9184 15C70.9184 20.5 67.9184 30.5 59.4184 31.5C50.9184 32.5 51.4184 22 51.4184 17C51.4184 12 51.9184 10 54.4184 10C56.9184 10 56.9184 15.5 56.4184 20.5C55.9184 25.5 55.8181 35.2531 48.9184 37.5C44.584 38.9115 41.0619 38.2394 37.4184 35.5C31.0195 30.689 29.4127 15 37.4184 15C45.4185 15 43.1649 26.0141 41.4184 33C40.5713 36.3887 37.4184 41 37.4184 41" stroke="black" stroke-linecap="round"/>
</svg>
