<?xml version="1.0" standalone="no"?>
<!DOCTYPE svg PUBLIC "-//W3C//DTD SVG 20010904//EN"
 "http://www.w3.org/TR/2001/REC-SVG-20010904/DTD/svg10.dtd">
<svg version="1.0" xmlns="http://www.w3.org/2000/svg"
 width="270.000000pt" height="271.000000pt" viewBox="0 0 270.000000 271.000000"
 preserveAspectRatio="xMidYMid meet">
<metadata>
Created by potrace 1.16, written by Peter Selinger 2001-2019
</metadata>
<g transform="translate(0.000000,271.000000) scale(0.100000,-0.100000)"
fill="#000000" stroke="none">
<path d="M1345 2623 c-445 -3 -450 -3 -467 -24 -10 -12 -18 -30 -18 -40 0 -29
36 -59 70 -59 16 0 30 -2 30 -4 0 -4 -75 -182 -140 -331 -29 -66 -83 -182
-121 -258 -38 -76 -69 -147 -69 -157 0 -11 9 -29 20 -40 18 -18 33 -20 166
-20 113 0 145 -3 141 -12 -3 -7 -40 -94 -82 -193 -122 -288 -205 -493 -205
-509 0 -8 12 -24 28 -36 26 -22 32 -22 195 -15 145 6 167 5 167 -8 0 -20 -65
-217 -128 -387 -121 -326 -192 -522 -192 -526 0 -2 43 -4 95 -4 l94 0 132 158
c238 286 879 1144 879 1178 0 41 -24 49 -177 54 l-143 5 220 305 c121 168 223
315 226 328 4 15 0 30 -12 44 -18 19 -25 20 -146 14 -71 -4 -128 -5 -128 -2 0
6 213 351 261 424 35 52 37 85 7 106 -18 13 -47 15 -138 14 -63 -2 -317 -4
-565 -5z m545 -121 c0 -4 -61 -106 -135 -226 -74 -120 -135 -228 -135 -240 0
-55 50 -75 183 -76 l77 0 -128 -177 c-70 -98 -170 -235 -220 -304 -51 -70 -92
-136 -92 -148 0 -11 9 -30 20 -41 18 -18 33 -20 155 -20 74 0 135 -3 135 -7
-1 -23 -769 -1029 -801 -1049 -8 -5 2 26 82 239 93 247 169 485 169 529 0 17
-10 34 -27 49 -27 21 -33 21 -192 15 -130 -5 -162 -4 -158 6 56 138 172 414
218 519 35 82 59 151 59 172 0 62 -14 67 -171 67 -76 0 -139 2 -139 3 0 2 26
60 59 128 32 68 100 222 151 341 l92 218 346 3 c191 1 371 3 400 5 28 1 52 -1
52 -6z"/>
</g>
</svg>
