<?xml version="1.0" standalone="no"?>
<!DOCTYPE svg PUBLIC "-//W3C//DTD SVG 20010904//EN"
 "http://www.w3.org/TR/2001/REC-SVG-20010904/DTD/svg10.dtd">
<svg version="1.0" xmlns="http://www.w3.org/2000/svg"
 width="512.000000pt" height="512.000000pt" viewBox="0 0 512.000000 512.000000"
 preserveAspectRatio="xMidYMid meet">
<metadata>
Created by potrace 1.16, written by Peter Selinger 2001-2019
</metadata>
<g transform="translate(0.000000,512.000000) scale(0.100000,-0.100000)"
fill="#000000" stroke="none">
<path d="M2320 5020 c-292 -32 -592 -116 -854 -240 -621 -293 -1101 -874
-1276 -1545 -85 -328 -97 -612 -44 -1035 26 -207 111 -517 185 -677 304 -660
876 -1149 1564 -1338 193 -53 328 -74 547 -87 156 -10 209 -9 250 1 29 6 115
23 191 36 516 89 890 273 1294 636 314 283 595 774 673 1176 26 134 28 375 4
472 -23 92 -49 133 -83 129 -40 -5 -63 -58 -135 -311 -134 -467 -249 -707
-469 -982 -181 -224 -474 -455 -738 -579 -162 -76 -292 -119 -492 -160 -611
-126 -1236 22 -1732 409 -151 118 -348 337 -473 526 -240 363 -352 917 -282
1396 55 368 175 657 406 972 272 371 722 674 1156 780 260 62 285 66 543 65
231 0 246 -1 390 -31 255 -54 378 -95 555 -183 203 -102 320 -178 506 -330
125 -102 167 -144 269 -265 249 -297 443 -663 540 -1020 47 -176 58 -209 77
-247 43 -88 89 -21 108 157 13 109 -2 220 -51 400 -70 257 -166 481 -299 695
-345 554 -878 945 -1505 1104 -262 66 -618 99 -825 76z"/>
<path d="M2844 3367 c-77 -30 -124 -87 -124 -150 0 -53 76 -160 222 -313 l78
-81 -238 -8 c-130 -4 -347 -9 -482 -10 -234 -2 -541 -27 -704 -56 -117 -21
-265 -109 -301 -180 -21 -40 -19 -92 6 -123 l20 -26 308 0 c344 0 478 10 629
46 l104 24 176 -17 c98 -9 270 -17 383 -17 l206 -1 -56 -70 c-31 -38 -76 -95
-100 -125 -90 -112 -141 -263 -122 -364 10 -54 32 -83 81 -103 l34 -15 246
249 c247 249 292 300 371 429 80 131 91 201 37 249 -13 11 -89 97 -169 190
-190 221 -262 294 -384 385 -136 103 -157 111 -221 87z"/>
</g>
</svg>
