<?xml version="1.0" standalone="no"?>
<!DOCTYPE svg PUBLIC "-//W3C//DTD SVG 20010904//EN"
 "http://www.w3.org/TR/2001/REC-SVG-20010904/DTD/svg10.dtd">
<svg version="1.0" xmlns="http://www.w3.org/2000/svg"
 width="512.000000pt" height="512.000000pt" viewBox="0 0 512.000000 512.000000"
 preserveAspectRatio="xMidYMid meet">
<metadata>
Created by potrace 1.16, written by Peter Selinger 2001-2019
</metadata>
<g transform="translate(0.000000,512.000000) scale(0.100000,-0.100000)"
fill="#000000" stroke="none">
<path d="M668 4720 c-346 -54 -584 -307 -629 -669 -25 -200 31 -370 174 -527
165 -180 426 -271 662 -230 171 29 301 99 430 230 64 64 90 100 128 176 63
126 80 199 81 335 1 308 -174 562 -456 662 -62 22 -93 26 -203 29 -71 1 -156
-1 -187 -6z m343 -281 c267 -125 308 -516 79 -748 -101 -103 -217 -152 -360
-155 -180 -2 -316 97 -381 279 -30 85 -37 247 -14 334 40 154 113 243 244 298
52 22 67 23 216 21 149 -3 164 -5 216 -29z"/>
<path d="M2560 3887 c-3 -3 -145 -11 -315 -17 -340 -12 -351 -14 -380 -76 -20
-44 -22 -64 -45 -484 -37 -690 -45 -1047 -44 -1895 0 -919 -2 -879 65 -919 39
-23 161 -30 594 -30 323 -1 342 0 374 19 54 32 76 69 74 124 -1 26 -20 155
-42 287 -101 606 -121 913 -77 1204 42 276 162 450 356 516 78 27 363 27 465
0 101 -26 181 -72 250 -141 199 -200 234 -511 151 -1315 -43 -418 -48 -625
-16 -678 11 -18 35 -39 53 -46 35 -14 410 -50 676 -66 266 -15 266 -15 267
285 0 115 4 424 9 685 9 520 3 649 -41 866 -119 599 -538 1080 -1104 1268
-171 57 -306 78 -535 83 -188 5 -297 -3 -476 -33 l-35 -6 -17 143 c-19 151
-30 183 -78 206 -27 13 -121 28 -129 20z m-48 -308 c3 -24 7 -75 8 -114 1 -80
16 -130 54 -180 39 -51 79 -59 190 -35 383 82 686 76 976 -19 242 -80 514
-280 682 -501 171 -227 254 -416 299 -685 19 -111 17 -536 -4 -797 -10 -114
-17 -300 -17 -414 l0 -207 -115 6 c-64 4 -173 12 -244 18 l-130 12 -6 49 c-8
54 -3 181 22 558 23 347 23 704 0 845 -65 397 -229 612 -547 719 -280 93 -592
68 -794 -64 -185 -121 -297 -313 -350 -604 -57 -308 -45 -643 44 -1269 11 -76
20 -147 20 -157 0 -19 -9 -20 -234 -20 -128 0 -254 3 -280 6 l-46 7 0 701 c0
707 16 1366 45 1861 8 143 15 272 15 288 l0 27 98 1 c53 1 140 4 192 8 52 4
100 7 105 6 6 -1 13 -22 17 -46z"/>
<path d="M410 3053 c-32 -12 -60 -48 -66 -82 -4 -20 -11 -45 -17 -55 -19 -37
-7 -324 38 -946 47 -641 65 -917 75 -1185 12 -301 12 -301 86 -342 34 -19 77
-25 346 -47 168 -15 329 -26 356 -26 83 0 153 19 184 50 28 28 28 29 28 162 0
143 -21 779 -45 1368 -8 201 -19 498 -25 660 -11 311 -14 339 -36 382 -28 54
-35 55 -489 62 -231 3 -427 3 -435 -1z m449 -253 l238 0 7 -187 c4 -104 11
-296 16 -428 8 -211 19 -510 48 -1325 5 -118 5 -219 1 -224 -5 -5 -103 -1
-233 9 l-226 18 0 27 c0 85 -25 505 -60 995 -44 621 -72 1104 -63 1118 3 4 12
6 20 3 8 -3 122 -6 252 -6z"/>
</g>
</svg>
