<?xml version="1.0" standalone="no"?>
<!DOCTYPE svg PUBLIC "-//W3C//DTD SVG 20010904//EN"
 "http://www.w3.org/TR/2001/REC-SVG-20010904/DTD/svg10.dtd">
<svg version="1.0" xmlns="http://www.w3.org/2000/svg"
 width="270.000000pt" height="271.000000pt" viewBox="0 0 270.000000 271.000000"
 preserveAspectRatio="xMidYMid meet">
<metadata>
Created by potrace 1.16, written by Peter Selinger 2001-2019
</metadata>
<g transform="translate(0.000000,271.000000) scale(0.100000,-0.100000)"
fill="#000000" stroke="none">
<path d="M2110 2630 c-130 -28 -254 -128 -314 -252 -60 -128 -71 -252 -37
-408 44 -195 168 -426 306 -567 63 -65 93 -77 127 -50 32 25 151 175 219 276
85 126 130 213 171 334 30 85 32 102 32 222 0 149 -14 201 -81 289 -94 123
-270 188 -423 156z m151 -40 c176 -33 294 -160 314 -336 14 -120 -42 -330
-131 -492 -80 -145 -263 -382 -295 -382 -19 0 -106 102 -178 209 -143 212
-209 434 -183 613 29 199 153 346 324 383 79 17 84 17 149 5z"/>
<path d="M2115 2450 c-131 -34 -214 -143 -202 -268 11 -101 92 -228 171 -266
108 -51 267 20 330 146 37 73 37 173 0 246 -56 113 -181 172 -299 142z m91
-41 c3 -6 -1 -18 -10 -27 -14 -14 -17 -14 -36 3 -11 10 -20 22 -20 27 0 12 58
10 66 -3z m-126 -24 c-7 -8 -17 -15 -22 -15 -6 0 -5 7 2 15 7 8 17 15 22 15 6
0 5 -7 -2 -15z m200 5 c13 -8 13 -10 -2 -10 -9 0 -20 5 -23 10 -8 13 5 13 25
0z m-136 -19 c9 -10 14 -25 11 -33 -4 -11 2 -15 25 -15 24 0 29 4 25 17 -8 25
20 46 39 30 8 -6 13 -17 10 -24 -3 -9 4 -13 21 -13 21 0 24 3 19 19 -11 35 27
17 62 -29 45 -59 59 -132 39 -198 -40 -136 -214 -228 -310 -165 -36 24 -87 89
-79 102 3 5 15 2 25 -8 24 -22 39 -9 16 13 -16 16 -15 19 15 50 37 38 23 45
-19 9 l-28 -25 -27 26 -26 25 31 28 32 29 23 -21 c17 -17 22 -18 22 -6 0 9 -7
21 -15 28 -14 12 -13 16 10 40 38 39 31 60 -8 22 l-33 -32 -22 23 c-27 29 -27
38 -1 71 27 34 41 33 33 -1 -7 -26 -6 -27 10 -14 15 12 20 11 46 -14 39 -37
52 -24 15 15 -28 29 -28 30 -10 50 22 25 28 25 49 1z m-151 -129 c16 -17 15
-20 -13 -47 l-30 -29 0 31 c0 35 9 63 20 63 4 0 14 -8 23 -18z m2 -152 c3 -5
1 -10 -4 -10 -6 0 -11 5 -11 10 0 6 2 10 4 10 3 0 8 -4 11 -10z"/>
<path d="M451 1310 c-131 -28 -258 -128 -317 -251 -120 -246 -45 -563 215
-913 111 -148 136 -157 214 -73 148 156 306 421 356 592 87 300 0 540 -226
625 -66 25 -176 34 -242 20z m246 -62 c68 -25 146 -96 177 -161 91 -187 28
-471 -170 -767 -75 -113 -199 -260 -218 -260 -32 0 -191 221 -266 370 -21 41
-50 113 -66 160 -27 78 -29 97 -29 226 l0 140 37 75 c99 200 329 293 535 217z"/>
<path d="M405 1116 c-99 -46 -161 -148 -153 -250 10 -123 119 -267 211 -281
123 -19 260 65 302 186 80 225 -149 444 -360 345z m145 -22 c0 -16 -35 -32
-47 -22 -21 17 -15 28 17 28 17 0 30 -3 30 -6z m-125 -24 c-10 -11 -21 -17
-24 -14 -3 3 3 12 13 20 28 20 32 17 11 -6z m61 -4 c8 -8 14 -19 14 -25 0 -6
6 -11 14 -11 20 0 29 -30 14 -48 -11 -13 -10 -15 5 -9 10 4 25 7 32 7 8 0 15
10 17 23 2 12 10 22 18 22 9 0 14 -7 12 -19 -3 -13 1 -17 11 -13 8 3 20 0 26
-6 15 -15 26 0 12 17 -9 11 -9 16 0 22 17 10 55 -40 70 -93 24 -89 -8 -194
-78 -252 -41 -34 -111 -61 -157 -61 -36 0 -92 31 -123 69 -27 31 -28 44 -8 61
13 10 19 10 33 -4 24 -21 37 -8 16 15 -14 16 -14 20 7 48 l23 31 -27 28 c-34
35 -34 42 3 77 l30 29 25 -24 c32 -30 46 -18 16 14 -13 14 -20 29 -16 35 3 6
-2 11 -12 11 -36 0 -45 22 -21 47 25 27 25 27 44 9z m91 -12 c8 -21 -13 -42
-28 -27 -13 13 -5 43 11 43 6 0 13 -7 17 -16z m71 -6 c-5 -15 -23 -11 -26 6
-2 11 2 14 13 10 9 -4 14 -11 13 -16z m-265 -25 c-5 -12 -2 -15 10 -10 8 3 21
-1 28 -9 10 -12 7 -20 -16 -44 -35 -36 -45 -37 -74 -6 l-22 24 31 36 c32 36
55 41 43 9z m-49 -95 c14 -20 14 -24 -1 -40 -22 -25 -8 -36 17 -13 21 19 21
18 46 -10 l25 -29 -21 -20 -20 -20 -45 44 c-44 43 -51 62 -39 94 8 22 20 20
38 -6z m13 -165 c-15 -16 -17 -15 -32 20 -23 56 -18 65 17 29 31 -30 31 -33
15 -49z"/>
<path d="M1895 1215 c-226 -53 -436 -141 -547 -229 -171 -136 -176 -293 -12
-416 129 -97 157 -134 157 -215 1 -70 -19 -121 -66 -173 -95 -102 -252 -135
-467 -97 -107 19 -110 19 -110 -4 0 -26 120 -46 280 -46 145 0 197 14 275 73
132 99 170 264 87 378 -15 20 -63 64 -107 98 -100 77 -125 113 -125 178 0 90
55 159 190 242 128 79 406 174 566 192 44 6 54 10 54 25 0 26 -47 24 -175 -6z"/>
</g>
</svg>
