<?xml version="1.0" standalone="no"?>
<!DOCTYPE svg PUBLIC "-//W3C//DTD SVG 20010904//EN"
 "http://www.w3.org/TR/2001/REC-SVG-20010904/DTD/svg10.dtd">
<svg version="1.0" xmlns="http://www.w3.org/2000/svg"
 width="512.000000pt" height="512.000000pt" viewBox="0 0 512.000000 512.000000"
 preserveAspectRatio="xMidYMid meet">
<metadata>
Created by potrace 1.16, written by Peter Selinger 2001-2019
</metadata>
<g transform="translate(0.000000,512.000000) scale(0.100000,-0.100000)"
fill="#000000" stroke="none">
<path d="M1805 4444 c-687 -27 -1057 -56 -1424 -115 -135 -21 -144 -25 -181
-64 -22 -23 -25 -35 -23 -93 1 -37 2 -97 2 -134 0 -37 9 -176 21 -310 11 -134
22 -279 26 -323 24 -330 234 -2480 254 -2609 12 -73 46 -121 100 -137 30 -9
140 -9 472 0 238 6 746 16 1128 21 1326 19 2047 49 2679 111 155 15 205 42
238 128 17 43 18 99 17 771 0 612 -5 825 -28 1370 -50 1210 -52 1236 -78 1288
-13 25 -36 55 -51 66 -27 20 -40 21 -810 21 -430 1 -1113 4 -1517 7 -404 3
-775 4 -825 2z m1697 -355 c516 -6 969 -8 1008 -4 47 5 70 4 70 -4 0 -5 -39
-45 -87 -87 -442 -387 -989 -754 -1586 -1062 l-157 -82 -103 51 c-244 123
-611 340 -982 582 -370 242 -827 548 -823 552 6 6 333 34 543 46 236 13 781
25 1015 22 91 -1 587 -8 1102 -14z m-2557 -549 c204 -135 421 -279 483 -319
61 -40 112 -77 112 -82 0 -9 -36 -69 -284 -469 -174 -281 -334 -560 -432 -754
-47 -92 -87 -166 -89 -164 -9 9 -163 1661 -182 1952 -5 84 -4 98 8 91 8 -5
181 -120 384 -255z m3789 -475 c9 -236 18 -529 21 -650 6 -213 5 -219 -12
-196 -208 285 -383 504 -590 738 -71 80 -138 157 -151 173 l-23 28 98 68 c143
99 393 289 519 394 l109 92 7 -109 c3 -59 13 -301 22 -538z m-888 -288 c370
-416 652 -791 854 -1136 l72 -123 -7 -194 c-6 -153 -10 -194 -21 -194 -7 0
-132 -9 -276 -20 -658 -48 -844 -54 -2908 -90 -327 -6 -626 -13 -664 -17 -65
-6 -69 -5 -61 13 4 10 29 82 55 159 104 310 244 608 458 975 84 144 473 773
487 789 11 11 45 -5 207 -101 241 -143 251 -148 433 -243 83 -43 166 -87 185
-97 20 -10 55 -18 83 -18 42 0 79 15 280 118 235 120 388 205 552 305 50 31
95 56 100 56 6 0 83 -82 171 -182z"/>
</g>
</svg>
