<?xml version="1.0" standalone="no"?>
<!DOCTYPE svg PUBLIC "-//W3C//DTD SVG 20010904//EN"
 "http://www.w3.org/TR/2001/REC-SVG-20010904/DTD/svg10.dtd">
<svg version="1.0" xmlns="http://www.w3.org/2000/svg"
 width="477.000000pt" height="479.000000pt" viewBox="0 0 477.000000 479.000000"
 preserveAspectRatio="xMidYMid meet">
<metadata>
Created by potrace 1.16, written by Peter Selinger 2001-2019
</metadata>
<g transform="translate(0.000000,479.000000) scale(0.100000,-0.100000)"
fill="#000000" stroke="none">
<path d="M3990 4766 l-74 -25 -1539 -1538 c-846 -846 -1547 -1551 -1557 -1567
-10 -15 -29 -33 -42 -40 -15 -7 -50 -64 -104 -166 -45 -85 -158 -292 -253
-460 -94 -168 -226 -413 -293 -545 -114 -228 -121 -244 -122 -304 -1 -59 1
-64 32 -92 19 -17 44 -29 60 -29 50 0 815 422 1082 597 237 155 274 186 525
432 626 615 1009 989 1645 1607 689 669 1392 1361 1405 1382 5 9 10 60 9 112
-1 157 -64 297 -197 436 -179 189 -389 262 -577 200z m286 -230 c149 -74 274
-233 289 -367 l7 -54 -81 -80 -81 -80 -37 20 c-87 47 -238 211 -368 398 l-68
99 44 45 c56 58 70 63 150 60 53 -2 81 -10 145 -41z m-451 -258 c108 -164 276
-357 368 -423 31 -22 56 -45 57 -51 0 -7 -19 -29 -42 -49 -24 -21 -160 -153
-303 -294 -143 -141 -514 -504 -825 -806 -705 -685 -915 -890 -1306 -1277
l-310 -308 -70 0 c-186 0 -331 163 -365 409 l-11 74 1384 1384 c761 761 1386
1383 1389 1383 4 0 19 -19 34 -42z m-2912 -3093 c62 -124 165 -227 276 -279
l54 -25 -159 -104 c-143 -94 -468 -287 -483 -287 -4 0 -37 30 -74 68 l-66 67
196 354 197 354 16 -49 c10 -27 29 -72 43 -99z m-503 -796 c0 -4 -22 -19 -50
-33 -27 -14 -50 -24 -50 -21 0 3 12 28 26 56 l25 51 25 -23 c13 -12 24 -26 24
-30z"/>
<path d="M3765 4084 c-16 -9 -199 -183 -405 -388 -206 -204 -501 -495 -655
-647 -154 -151 -529 -520 -833 -819 -327 -322 -561 -559 -573 -582 -64 -125
48 -288 198 -288 16 0 48 10 71 23 69 38 2440 2375 2467 2433 21 44 19 117 -5
163 -50 99 -179 149 -265 105z"/>
</g>
</svg>
