<?xml version="1.0" standalone="no"?>
<!DOCTYPE svg PUBLIC "-//W3C//DTD SVG 20010904//EN"
 "http://www.w3.org/TR/2001/REC-SVG-20010904/DTD/svg10.dtd">
<svg version="1.0" xmlns="http://www.w3.org/2000/svg"
 width="512.000000pt" height="512.000000pt" viewBox="0 0 512.000000 512.000000"
 preserveAspectRatio="xMidYMid meet">
<metadata>
Created by potrace 1.16, written by Peter Selinger 2001-2019
</metadata>
<g transform="translate(0.000000,512.000000) scale(0.100000,-0.100000)"
fill="#000000" stroke="none">
<path d="M2935 4849 c-254 -16 -843 -99 -882 -125 -37 -24 -46 -82 -39 -264 3
-91 9 -176 12 -189 l7 -24 -67 6 c-37 4 -206 12 -374 18 -800 32 -1235 -62
-1395 -299 -21 -31 -48 -64 -59 -73 -13 -10 -24 -35 -29 -65 -7 -43 -19 -688
-32 -1824 -4 -307 -6 -337 -37 -545 -30 -197 -34 -243 -34 -440 -1 -216 -1
-221 27 -300 16 -43 48 -109 72 -146 132 -197 337 -292 680 -315 134 -8 1052
12 1715 37 586 23 931 26 1200 10 617 -37 908 -38 1025 -6 140 39 219 94 266
186 65 128 76 417 32 795 -25 207 -27 262 -27 569 0 352 1 369 60 965 49 498
64 694 64 856 0 155 -2 162 -67 185 -19 6 -36 21 -43 39 -15 36 -111 128 -170
163 -164 96 -474 157 -945 187 -88 5 -202 10 -253 10 l-93 0 6 103 c4 56 2
175 -3 265 -9 158 -10 164 -35 190 -23 22 -39 28 -104 34 -100 9 -312 7 -478
-3z m400 -386 l0 -192 -50 -5 c-27 -3 -174 -8 -325 -11 -151 -2 -389 -8 -527
-11 l-253 -7 0 55 c0 63 19 260 26 267 5 6 140 26 344 52 227 28 489 47 650
45 l135 -1 0 -192z m-1644 -408 c131 -7 315 -19 410 -26 138 -10 266 -9 614 1
576 17 1320 10 1530 -15 371 -43 556 -128 599 -278 10 -36 26 -64 45 -80 l30
-25 -10 -168 c-5 -93 -27 -392 -49 -664 -68 -850 -74 -1193 -29 -1660 29 -296
20 -447 -35 -561 -22 -47 -76 -76 -169 -91 -85 -13 -495 -1 -927 28 -297 19
-555 15 -1195 -21 -799 -44 -1525 -64 -1684 -46 -351 41 -539 174 -591 416
-23 105 -16 398 16 670 27 234 28 255 31 877 3 350 0 770 -6 934 -8 252 -7
301 5 318 8 11 14 32 14 47 0 38 26 107 56 146 77 102 274 172 569 202 131 14
524 12 776 -4z"/>
<path d="M795 3850 c-16 -17 -23 -69 -46 -333 -30 -346 -49 -640 -49 -763 0
-127 16 -140 213 -174 245 -41 416 -53 767 -53 184 0 352 3 372 7 l36 7 -1
-96 c-2 -95 -2 -97 28 -122 l29 -25 316 5 c339 6 467 17 515 45 35 21 47 56
63 176 5 43 15 82 21 86 36 22 736 45 966 32 178 -10 215 -4 247 39 23 30 78
255 109 444 29 176 32 405 6 490 -37 120 -132 172 -196 107 -28 -27 -28 -28
-34 -207 -6 -171 -23 -355 -50 -529 -20 -129 -18 -128 -422 -112 -225 10 -258
8 -1035 -59 -660 -56 -889 -68 -1240 -63 -320 5 -345 9 -413 76 -63 61 -65 82
-69 563 -3 386 -5 428 -21 452 -22 35 -84 38 -112 7z m2025 -1277 c0 -10 -4
-24 -8 -30 -11 -17 -203 -33 -394 -33 -141 0 -148 1 -148 20 0 16 7 20 33 21
17 0 120 9 227 18 267 25 290 25 290 4z"/>
</g>
</svg>
