<?xml version="1.0" standalone="no"?>
<!DOCTYPE svg PUBLIC "-//W3C//DTD SVG 20010904//EN"
 "http://www.w3.org/TR/2001/REC-SVG-20010904/DTD/svg10.dtd">
<svg version="1.0" xmlns="http://www.w3.org/2000/svg"
 width="270.000000pt" height="271.000000pt" viewBox="0 0 270.000000 271.000000"
 preserveAspectRatio="xMidYMid meet">
<metadata>
Created by potrace 1.16, written by Peter Selinger 2001-2019
</metadata>
<g transform="translate(0.000000,271.000000) scale(0.100000,-0.100000)"
fill="#000000" stroke="none">
<path d="M2120 2384 c-295 -36 -842 -49 -1110 -25 -69 6 -154 13 -190 16 l-65
5 -43 -50 -42 -51 0 -444 0 -445 -41 -61 c-23 -33 -50 -87 -60 -120 -23 -73
-25 -187 -5 -253 14 -45 13 -50 -10 -99 -13 -29 -24 -57 -24 -64 0 -6 -88 -96
-195 -200 -108 -103 -198 -197 -201 -209 -3 -12 1 -38 10 -58 19 -46 63 -66
148 -66 l63 0 177 178 c170 169 180 177 218 178 28 0 48 8 66 25 l26 24 16
-22 c10 -12 28 -38 42 -57 145 -200 656 -237 1485 -105 l130 21 27 56 26 56
-63 60 c-98 96 -156 235 -190 461 -10 66 -18 239 -25 515 -16 736 -18 753 -55
748 -5 0 -57 -7 -115 -14z m109 -579 c7 -286 17 -567 22 -625 21 -208 88 -396
180 -505 l41 -50 -53 -12 c-198 -45 -628 -78 -904 -70 -219 7 -316 22 -403 63
l-57 26 61 22 c130 46 222 127 277 244 42 91 49 208 18 311 -38 127 -146 239
-275 287 -69 26 -223 26 -284 2 -23 -10 -46 -18 -51 -18 -20 0 -19 815 1 836
3 2 89 -2 192 -11 318 -26 732 -18 1091 19 66 7 123 10 126 7 4 -3 12 -240 18
-526z m-1104 -366 c154 -57 251 -202 249 -369 -2 -100 -31 -174 -96 -245 -111
-121 -250 -161 -400 -115 -142 44 -239 153 -269 303 -27 131 42 299 154 379
97 69 250 89 362 47z m-692 -951 c-115 -115 -175 -168 -190 -168 -23 0 -53 24
-53 43 0 7 80 89 177 183 l178 171 28 -30 28 -30 -168 -169z"/>
<path d="M994 2137 c-2 -7 -3 -100 -2 -207 l3 -195 53 -3 52 -3 0 210 0 211
-50 0 c-32 0 -52 -5 -56 -13z"/>
<path d="M2024 2016 c-9 -24 4 -48 23 -44 24 4 24 52 0 56 -9 2 -20 -4 -23
-12z"/>
<path d="M1170 1880 l0 -140 50 0 50 0 0 140 0 140 -50 0 -50 0 0 -140z"/>
<path d="M1608 2008 c-13 -35 1 -38 177 -38 130 0 174 3 178 13 12 34 -3 37
-178 37 -129 0 -174 -3 -177 -12z"/>
<path d="M1350 1825 l0 -85 50 0 50 0 0 85 0 85 -50 0 -50 0 0 -85z"/>
<path d="M1672 1851 c-8 -5 -12 -17 -10 -27 3 -17 15 -19 139 -22 108 -2 139
0 148 12 9 11 8 17 -4 30 -13 13 -40 16 -138 16 -67 0 -128 -4 -135 -9z"/>
<path d="M1641 1686 c-9 -11 -8 -18 4 -30 24 -24 296 -24 320 0 12 12 13 19 4
30 -17 20 -311 20 -328 0z"/>
<path d="M1976 1175 c-4 -53 -5 -99 -2 -103 7 -7 178 28 190 39 14 13 -37 91
-79 121 -22 15 -54 31 -71 34 l-31 6 -7 -97z"/>
<path d="M1840 1207 c-66 -31 -114 -92 -125 -158 -23 -132 103 -255 239 -235
81 12 156 86 171 169 l7 37 -105 0 -104 0 -7 46 c-3 26 -6 64 -6 85 0 69 -15
81 -70 56z"/>
<path d="M863 1369 c-64 -25 -131 -88 -163 -154 -21 -42 -25 -64 -25 -140 0
-75 4 -97 23 -134 124 -233 460 -227 567 11 70 156 7 331 -147 408 -52 25 -72
30 -132 29 -46 0 -89 -7 -123 -20z m191 -43 c188 -57 245 -288 106 -426 -140
-141 -369 -79 -426 117 -37 128 37 260 173 309 49 17 89 17 147 0z"/>
</g>
</svg>
