<?xml version="1.0" standalone="no"?>
<!DOCTYPE svg PUBLIC "-//W3C//DTD SVG 20010904//EN"
 "http://www.w3.org/TR/2001/REC-SVG-20010904/DTD/svg10.dtd">
<svg version="1.0" xmlns="http://www.w3.org/2000/svg"
 width="129.000000pt" height="158.000000pt" viewBox="0 0 129.000000 158.000000"
 preserveAspectRatio="xMidYMid meet">
<metadata>
Created by potrace 1.16, written by Peter Selinger 2001-2019
</metadata>
<g transform="translate(0.000000,158.000000) scale(0.100000,-0.100000)"
fill="#000000" stroke="none">
<path d="M571 1558 c-4 -13 -14 -68 -20 -123 -18 -143 -49 -292 -71 -335 -33
-65 -111 -124 -278 -209 -160 -82 -202 -110 -202 -136 0 -33 36 -51 137 -68
163 -26 239 -69 307 -172 53 -79 85 -173 101 -296 19 -145 52 -209 105 -209
61 0 93 51 105 165 28 255 129 385 410 525 63 32 111 62 113 71 2 9 -7 29 -20
43 -18 21 -47 32 -141 55 -132 33 -170 54 -248 139 -104 114 -155 246 -184
476 -5 34 -14 55 -32 72 -33 31 -71 31 -82 2z m173 -546 c68 -94 204 -205 274
-224 l36 -10 -79 -41 c-88 -46 -197 -141 -225 -198 -11 -20 -35 -101 -55 -180
-20 -79 -40 -148 -44 -152 -5 -5 -16 36 -25 90 -28 162 -60 254 -114 325 -62
83 -130 133 -209 154 l-63 17 98 54 c176 97 255 173 289 279 l17 54 31 -59
c17 -32 48 -81 69 -109z"/>
</g>
</svg>
