<?xml version="1.0" standalone="no"?>
<!DOCTYPE svg PUBLIC "-//W3C//DTD SVG 20010904//EN"
 "http://www.w3.org/TR/2001/REC-SVG-20010904/DTD/svg10.dtd">
<svg version="1.0" xmlns="http://www.w3.org/2000/svg"
 width="542.000000pt" height="512.000000pt" viewBox="0 0 542.000000 512.000000"
 preserveAspectRatio="xMidYMid meet">
<metadata>
Created by potrace 1.16, written by Peter Selinger 2001-2019
</metadata>
<g transform="translate(0.000000,512.000000) scale(0.100000,-0.100000)"
fill="#000000" stroke="none">
<path d="M3480 4414 c-349 -30 -691 -195 -961 -464 -129 -128 -183 -198 -254
-330 l-40 -74 -50 2 c-148 9 -355 53 -501 108 -104 38 -338 155 -439 219 -114
72 -245 169 -355 263 -106 92 -132 105 -197 106 -44 1 -57 -3 -78 -25 -54 -53
-70 -330 -30 -519 35 -168 126 -348 246 -487 l42 -48 -149 -5 c-163 -5 -191
-14 -214 -69 -15 -37 -6 -68 51 -182 87 -171 247 -342 405 -434 l68 -40 -70
-6 c-80 -7 -103 -17 -133 -55 -34 -44 -27 -84 27 -155 141 -188 333 -343 558
-451 57 -27 104 -53 104 -56 -2 -16 -101 -86 -175 -123 -123 -61 -212 -80
-412 -87 -163 -7 -173 -8 -197 -31 -39 -37 -51 -84 -32 -122 9 -18 16 -33 16
-34 0 -4 -200 25 -275 40 -128 24 -151 21 -196 -24 -41 -41 -49 -74 -27 -114
13 -25 9 -22 109 -98 203 -154 567 -340 704 -359 28 -4 111 -19 185 -33 709
-134 1436 39 2075 494 586 417 1063 1118 1200 1762 13 60 25 110 28 113 2 2
117 47 255 99 295 111 331 127 356 161 27 38 31 101 9 144 -16 30 -40 46 -180
115 l-161 80 44 75 c73 121 133 246 140 289 13 83 -47 148 -129 138 -41 -5
-257 -82 -406 -146 -40 -17 -77 -31 -83 -31 -5 0 -45 38 -89 85 -186 196 -397
293 -669 308 -41 3 -95 3 -120 1z m253 -268 c136 -35 244 -94 331 -181 86 -85
137 -169 176 -292 74 -231 54 -500 -66 -862 -193 -586 -582 -1096 -1114 -1462
-400 -276 -920 -439 -1395 -439 -127 0 -339 24 -480 55 -66 14 -134 28 -150
31 -17 3 -62 21 -100 39 l-70 33 163 1 c182 1 221 11 247 62 30 58 16 117 -37
149 l-31 18 44 12 c198 50 403 178 521 324 70 88 83 119 66 164 -16 42 -53 67
-173 113 -182 70 -324 152 -450 262 l-39 34 99 12 c91 12 260 45 356 71 50 14
79 51 79 104 0 77 -38 106 -165 125 -236 37 -355 78 -494 173 -83 57 -221 202
-221 233 0 3 91 5 203 3 223 -3 251 2 280 51 38 65 18 114 -70 176 -208 148
-367 364 -414 565 -15 62 -27 160 -19 160 3 0 30 -19 60 -41 349 -263 728
-435 1100 -498 162 -28 318 -37 364 -21 39 13 106 65 106 82 0 6 18 48 40 95
111 237 309 441 542 559 157 80 294 112 479 113 114 1 153 -3 232 -23z m837
-322 c0 -3 -17 -34 -39 -69 l-38 -64 -12 38 c-16 56 -15 60 32 81 45 20 57 23
57 14z m122 -360 c10 -3 18 -9 18 -14 0 -8 -151 -70 -171 -70 -5 0 -9 20 -9
44 0 24 -3 64 -6 89 l-7 47 79 -45 c43 -25 87 -48 96 -51z"/>
<path d="M3301 3774 c-41 -17 -57 -37 -71 -84 -19 -70 26 -151 91 -164 110
-22 188 81 141 186 -14 32 -30 49 -55 61 -42 21 -62 21 -106 1z"/>
</g>
</svg>
