<?xml version="1.0" encoding="UTF-8" standalone="no"?>
<svg
   id="svg"
   version="1.1"
   width="256"
   height="256"
   sodipodi:docname="logo.svg"
   inkscape:version="1.2.2 (732a01da63, 2022-12-09)"
   xmlns:inkscape="http://www.inkscape.org/namespaces/inkscape"
   xmlns:sodipodi="http://sodipodi.sourceforge.net/DTD/sodipodi-0.dtd"
   xmlns="http://www.w3.org/2000/svg"
   xmlns:svg="http://www.w3.org/2000/svg">
  <defs
     id="defs7" />
  <sodipodi:namedview
     id="namedview5"
     pagecolor="#ffffff"
     bordercolor="#000000"
     borderopacity="0.25"
     inkscape:showpageshadow="2"
     inkscape:pageopacity="0.0"
     inkscape:pagecheckerboard="0"
     inkscape:deskcolor="#d1d1d1"
     showgrid="false"
     inkscape:zoom="1.5440339"
     inkscape:cx="34.32567"
     inkscape:cy="137.95033"
     inkscape:window-width="1366"
     inkscape:window-height="743"
     inkscape:window-x="-8"
     inkscape:window-y="-8"
     inkscape:window-maximized="1"
     inkscape:current-layer="svg" />
  <ellipse
     style="fill:#ffffff;fill-opacity:1;stroke-width:1.00513"
     id="path1673"
     cx="128.55934"
     cy="128.88318"
     rx="127.26404"
     ry="127.58787" />
  <path
     d="m 103.733,102.056 c 18.912,15.815 28.767,24.699 28.767,25.932 0,1.232 -9.858,10.139 -28.712,25.944 C 87.997,167.169 74.625,178 74.073,178 72.014,178 71,173.881 71,165.52 71,155.42 69.267,157.724 89.756,140.583 97.59,134.028 104,128.37 104,128.009 104,127.647 97.588,121.988 89.75,115.431 69.294,98.318 71,100.588 71,90.48 71,82.194 72.014,78 74.018,78 c 0.522,0 13.893,10.825 29.715,24.056 M 191.5,168.5 v 9 h -29 -29 l -0.295,-7.912 c -0.162,-4.351 -0.061,-8.52 0.225,-9.265 0.423,-1.104 5.837,-1.305 29.295,-1.088 L 191.5,159.5 v 9"
     stroke="none"
     fill="#000000"
     fill-rule="evenodd"
     id="path2"
     sodipodi:nodetypes="cscsscscsscccccccccc"
     style="fill:#41403e;fill-opacity:1" />
</svg>
